<?xml version="1.0" standalone="no"?><!DOCTYPE svg PUBLIC "-//W3C//DTD SVG 1.1//EN" "http://www.w3.org/Graphics/SVG/1.1/DTD/svg11.dtd"><svg class="icon" width="200px" height="200.00px" viewBox="0 0 1024 1024" version="1.1" xmlns="http://www.w3.org/2000/svg"><path d="M963.328 828.576l-48.992-416.864c-5.664-47.904-46.752-94.656-93.792-106.432l-4.416-0.864C811.552 303.232 800 300.512 800 255.872l0-64C800 138.944 758.432 96 705.504 96l-35.232 0C617.344 96 576 131.744 576 175.872l0 48c0 1.728-0.736 3.424-0.448 5.12 1.632 10.176 1.472 38.144-8.64 49.984C565.216 280.992 560.256 288 545.44 288l-80 0C459.936 288 448 272.224 448 252.672l0-64C448 135.744 406.368 96 353.44 96l-32 0C268.512 96 224 135.744 224 188.672l0 32C224 243.84 205.888 274.304 185.056 284.704L172.064 291.456c-41.504 20.672-76.672 71.008-82.24 118.752L63.488 828.576c-3.04 25.728 4.8 51.296 21.44 69.984S125.984 928 151.872 928l160 0c51.264 0 97.12-41.568 102.208-92.576l19.264-192.608c1.728-17.28 18.56-34.848 22.464-34.848l96.128 0c18.688 0 36.672 16.224 38.528 34.816l19.264 192.672C614.816 886.464 660.672 928 711.936 928l163.136 0c25.92 0 50.272-10.784 66.912-29.472S966.368 854.272 963.328 828.576zM352 800 128 800c-17.696 0-32-14.304-32-32s14.304-32 32-32l224 0c17.696 0 32 14.304 32 32S369.696 800 352 800zM896 800l-224 0c-17.696 0-32-14.304-32-32s14.304-32 32-32l224 0c17.696 0 32 14.304 32 32S913.696 800 896 800z" /></svg>