<?xml version="1.0" standalone="no"?><!DOCTYPE svg PUBLIC "-//W3C//DTD SVG 1.1//EN" "http://www.w3.org/Graphics/SVG/1.1/DTD/svg11.dtd"><svg class="icon" width="200px" height="200.00px" viewBox="0 0 1024 1024" version="1.1" xmlns="http://www.w3.org/2000/svg"><path d="M889.92 749.728c-1.184-1.664-119.232-165.888-119.232-287.392 0-168.448-76.16-254.784-162.688-287.008L608 160c0-52.928-43.072-96-96-96s-96 43.072-96 96l0 15.296c-86.528 32.224-162.688 118.56-162.688 287.008 0 121.216-118.016 285.248-119.2 286.88-5.408 7.456-7.36 16.928-5.312 25.952 2.048 8.96 7.872 16.672 16 21.024 5.664 3.072 107.392 57.28 233.536 84.512C399.744 947.072 452.16 992 512 992s112.256-44.928 133.632-111.296c126.112-27.104 227.84-80.992 233.504-84.032 8.16-4.352 14.016-12.032 16.064-21.024S895.328 757.184 889.92 749.728zM480 160c0-17.632 14.368-32 32-32s32 14.368 32 32l0 0.928C536.832 160.32 529.728 160 522.688 160l-21.376 0C494.272 160 487.168 160.32 480 160.928L480 160zM512 928c-22.336 0-43.136-13.408-57.984-35.296C473.216 894.72 492.608 896 512 896s38.784-1.28 57.984-3.296C555.136 914.624 534.304 928 512 928z" /></svg>