<?xml version="1.0" standalone="no"?><!DOCTYPE svg PUBLIC "-//W3C//DTD SVG 1.1//EN" "http://www.w3.org/Graphics/SVG/1.1/DTD/svg11.dtd"><svg t="1565255129648" class="icon" viewBox="0 0 1024 1024" version="1.1" xmlns="http://www.w3.org/2000/svg" p-id="5903" xmlns:xlink="http://www.w3.org/1999/xlink" width="100" height="100"><defs><style type="text/css"></style></defs><path d="M1006.04 390.223v568.32c0 35.909-29.549 65.457-65.458 65.457H141.075c-35.893-0.043-65.414-29.565-65.458-65.457v-568.32h930.423z" fill="" p-id="5904"></path><path d="M479.862 729.718a12.137 12.137 0 0 0 8.625 3.601c3.24 0 6.348-1.298 8.626-3.601l199.995-199.995c17.123-16.877 45.025-16.877 62.149 0l1.969 2.048a43.734 43.734 0 0 1 12.927 31.035c0 11.65-4.657 22.83-12.927 31.035L515.308 839.838h-0.078a41.452 41.452 0 0 1-29.46 12.298 41.452 41.452 0 0 1-29.46-12.298l-34.658-34.659-100.274-100.194a47.355 47.355 0 0 1-12.326-31.862c0-25.97 21.37-47.34 47.34-47.34a47.351 47.351 0 0 1 31.862 12.327l91.608 91.608z" fill="#FFFFFF" p-id="5905"></path><path d="M1006.04 326.42H75.617v-95.626c0-52.502 43.203-95.705 95.705-95.705h273.802c2.071-51.038 44.624-91.899 95.705-91.899 51.08 0 93.633 40.861 95.704 91.899h273.802c52.502 0 95.705 43.203 95.705 95.705v95.626z" fill="" p-id="5906"></path></svg>