<?xml version="1.0" standalone="no"?><!DOCTYPE svg PUBLIC "-//W3C//DTD SVG 1.1//EN" "http://www.w3.org/Graphics/SVG/1.1/DTD/svg11.dtd"><svg t="1568556686513" class="icon" viewBox="0 0 1024 1024" version="1.1" xmlns="http://www.w3.org/2000/svg" p-id="1293" xmlns:xlink="http://www.w3.org/1999/xlink" width="128" height="128"><defs><style type="text/css"></style></defs><path d="M897.28 170.666667h-750.933333c-28.16 0-51.2 23.04-51.2 51.2v665.6c0 28.16 23.04 51.2 51.2 51.2h750.933333c28.16 0 51.2-23.04 51.2-51.2V221.866667c0-28.16-22.613333-51.2-51.2-51.2z m-17.066667 699.733333h-716.8V238.933333h716.8v631.466667z" p-id="1294"></path><path d="M744.96 699.733333H333.226667c-18.346667 0-32.853333-14.933333-32.853334-32.853333v-2.133333c0-18.346667 14.933333-32.853333 32.853334-32.853334h411.733333c18.346667 0 32.853333 14.933333 32.853333 32.853334v2.133333c0 17.92-14.506667 32.853333-32.853333 32.853333zM743.68 546.133333h-221.866667c-18.773333 0-34.133333-15.36-34.133333-34.133333s15.36-34.133333 34.133333-34.133333h221.866667c18.773333 0 34.133333 15.36 34.133333 34.133333s-14.933333 34.133333-34.133333 34.133333zM718.08 307.2c-18.773333 0-34.133333-15.36-34.133333-34.133333V119.466667c0-18.773333 15.36-34.133333 34.133333-34.133334s34.133333 15.36 34.133333 34.133334v153.6c0 18.773333-14.933333 34.133333-34.133333 34.133333zM325.546667 307.2c-18.773333 0-34.133333-15.36-34.133334-34.133333V119.466667c0-18.773333 15.36-34.133333 34.133334-34.133334s34.133333 15.36 34.133333 34.133334v153.6c0 18.773333-14.933333 34.133333-34.133333 34.133333z" p-id="1295"></path></svg>