<?xml version="1.0" standalone="no"?><!DOCTYPE svg PUBLIC "-//W3C//DTD SVG 1.1//EN" "http://www.w3.org/Graphics/SVG/1.1/DTD/svg11.dtd"><svg class="icon" width="200px" height="200.00px" viewBox="0 0 1024 1024" version="1.1" xmlns="http://www.w3.org/2000/svg"><path d="M898.133333 341.333333c0-10.666667-10.666667-21.333333-21.333333-21.333333h-128v-8.533333C746.666667 185.6 646.4 85.333333 520.533333 85.333333h-17.066666C379.733333 85.333333 277.333333 185.6 277.333333 311.466667v8.533333H149.333333c-10.666667 0-21.333333 8.533333-21.333333 21.333333l-17.066667 518.4v2.133334c4.266667 55.466667 51.2 98.133333 106.666667 98.133333h595.2c55.466667 0 102.4-42.666667 106.666667-98.133333v-2.133334l-21.333334-518.4zM320 311.466667C320 209.066667 403.2 128 503.466667 128h17.066666c100.266667 0 183.466667 83.2 183.466667 183.466667v8.533333H320v-8.533333zM298.666667 554.666667c-23.466667 0-42.666667-19.2-42.666667-42.666667 0-14.933333 8.533333-29.866667 21.333333-36.266667V384c0-12.8 8.533333-21.333333 21.333334-21.333333s21.333333 8.533333 21.333333 21.333333v91.733333c12.8 6.4 21.333333 21.333333 21.333333 36.266667 0 23.466667-19.2 42.666667-42.666666 42.666667z m426.666666 0c-23.466667 0-42.666667-19.2-42.666666-42.666667 0-14.933333 8.533333-29.866667 21.333333-36.266667V384c0-12.8 8.533333-21.333333 21.333333-21.333333s21.333333 8.533333 21.333334 21.333333v91.733333c12.8 6.4 21.333333 21.333333 21.333333 36.266667 0 23.466667-19.2 42.666667-42.666667 42.666667z"  /></svg>