<?xml version="1.0" standalone="no"?><!DOCTYPE svg PUBLIC "-//W3C//DTD SVG 1.1//EN" "http://www.w3.org/Graphics/SVG/1.1/DTD/svg11.dtd"><svg class="icon" width="200px" height="200.00px" viewBox="0 0 1024 1024" version="1.1" xmlns="http://www.w3.org/2000/svg"><path d="M928 288l-98.784 0c1.696-21.888 2.848-44.064 2.848-66.816 0-19.264-0.832-39.872-2.592-62.976-1.248-16.672-15.168-29.6-31.904-29.6L226.56 128.608c-16.736 0-30.656 12.928-31.904 29.6C192.896 181.888 192.064 201.888 192.064 221.184c0 22.752 1.152 44.928 2.848 66.816L96 288c-17.664 0-32 14.336-32 32 0 131.904 78.944 224 192 224 1.6 0 2.976-0.672 4.512-0.896 52.064 106.464 129.856 177.952 219.744 191.648C480.224 735.2 480 735.552 480 736l0 128-128 0c-17.664 0-32 14.304-32 32s14.336 32 32 32l320 0c17.696 0 32-14.304 32-32s-14.304-32-32-32l-128 0 0-128c0-0.448-0.224-0.8-0.256-1.248 89.952-13.664 167.744-85.12 219.872-191.648C765.12 543.328 766.432 544 768 544c113.024 0 192-92.096 192-224C960 302.336 945.696 288 928 288zM130.208 352l72.224 0c6.976 44.608 17.344 86.72 30.848 125.568C177.824 467.456 139.264 420.64 130.208 352zM790.848 477.536c13.536-38.816 23.84-80.96 30.848-125.536l72.128 0C884.736 420.576 846.24 467.392 790.848 477.536z" /></svg>