<?xml version="1.0" standalone="no"?><!DOCTYPE svg PUBLIC "-//W3C//DTD SVG 1.1//EN" "http://www.w3.org/Graphics/SVG/1.1/DTD/svg11.dtd"><svg t="1568556658675" class="icon" viewBox="0 0 1024 1024" version="1.1" xmlns="http://www.w3.org/2000/svg" p-id="1160" xmlns:xlink="http://www.w3.org/1999/xlink" width="128" height="128"><defs><style type="text/css"></style></defs><path d="M862.3 795H161c-63 0-96-33-96-96V193.5c0-62.2 33-96 96-96h701.2c65.8 0 96.1 33.8 96.1 96.1V699c0 59.2-30.3 96-96 96zM895 171.2c0-5.3-4.4-9.6-9.7-9.6h-746c-5.3 0-9.7 4.3-9.7 9.6v551.7c0 5.3 4.4 9.6 9.7 9.6h746c5.3 0 9.7-4.3 9.7-9.6V171.2z" p-id="1161"></path><path d="M323.5 631c-17.6 0-32-14.4-32-32V375.7c0-17.6 14.4-32 32-32s32 14.4 32 32V599c0 17.6-14.4 32-32 32zM548.7 631c-17.6 0-32-14.4-32-32V293.6c0-17.6 14.4-32 32-32s32 14.4 32 32V599c0 17.6-14.4 32-32 32zM268.1 894.6c0-17.6 14.4-32 32-32h422.6c17.6 0 32 14.4 32 32s-14.4 32-32 32H300.1c-17.6 0-32-14.4-32-32zM740.9 631c-17.6 0-32-14.4-32-32V457.7c0-17.6 14.4-32 32-32s32 14.4 32 32V599c0 17.6-14.4 32-32 32z" p-id="1162"></path></svg>