<?xml version="1.0" standalone="no"?><!DOCTYPE svg PUBLIC "-//W3C//DTD SVG 1.1//EN" "http://www.w3.org/Graphics/SVG/1.1/DTD/svg11.dtd"><svg class="icon" width="200px" height="200.00px" viewBox="0 0 1024 1024" version="1.1" xmlns="http://www.w3.org/2000/svg"><path d="M768 131.2 259.2 131.2c-54.4 0-96 41.6-96 96L163.2 864c0 54.4 41.6 96 96 96 6.4 0 12.8-3.2 16-3.2l236.8-147.2 240 147.2c6.4 3.2 9.6 3.2 16 3.2 54.4 0 96-41.6 96-96L864 227.2C864 172.8 822.4 131.2 768 131.2zM672 640 352 640c-19.2 0-32-12.8-32-32s12.8-32 32-32l320 0c19.2 0 32 12.8 32 32S691.2 640 672 640zM672 512 352 512c-19.2 0-32-12.8-32-32s12.8-32 32-32l320 0c19.2 0 32 12.8 32 32S691.2 512 672 512zM672 384 352 384c-19.2 0-32-12.8-32-32s12.8-32 32-32l320 0c19.2 0 32 12.8 32 32S691.2 384 672 384z" /></svg>