<?xml version="1.0" standalone="no"?><!DOCTYPE svg PUBLIC "-//W3C//DTD SVG 1.1//EN" "http://www.w3.org/Graphics/SVG/1.1/DTD/svg11.dtd"><svg class="icon" width="200px" height="200.00px" viewBox="0 0 1024 1024" version="1.1" xmlns="http://www.w3.org/2000/svg"><path d="M59.733333 512l85.333333-46.933333c4.266667 0 8.533333 0 12.8 0l349.866667 192c4.266667 0 8.533333 0 12.8 0l349.866667-192c4.266667 0 8.533333 0 12.8 0l85.333333 46.933333-443.733333 247.466667c-4.266667 0-8.533333 0-12.8 0L59.733333 512zM81.066667 302.933333l426.666667-234.666667c4.266667 0 8.533333 0 12.8 0l426.666667 234.666667c8.533333 4.266667 8.533333 17.066667 0 21.333333l-426.666667 234.666667c-4.266667 0-8.533333 0-12.8 0l-426.666667-234.666667C72.533333 315.733333 72.533333 307.2 81.066667 302.933333zM516.266667 857.6l349.866667-192c4.266667 0 8.533333 0 12.8 0l85.333333 46.933333-443.733333 247.466667c-4.266667 0-8.533333 0-12.8 0L59.733333 712.533333l85.333333-46.933333c4.266667 0 8.533333 0 12.8 0l349.866667 192C507.733333 861.866667 516.266667 861.866667 516.266667 857.6z" /></svg>