<?xml version="1.0" standalone="no"?><!DOCTYPE svg PUBLIC "-//W3C//DTD SVG 1.1//EN" "http://www.w3.org/Graphics/SVG/1.1/DTD/svg11.dtd"><svg t="1574485552467" class="icon" viewBox="0 0 1024 1024" version="1.1" xmlns="http://www.w3.org/2000/svg" p-id="10650" xmlns:xlink="http://www.w3.org/1999/xlink" width="128" height="128"><defs><style type="text/css"></style></defs><path d="M818.986667 236.373333C773.12 185.386667 613.12 170.666667 512 170.666667s-261.12 14.72-306.986667 65.706666c-7.68 3.2-13.013333 10.666667-13.013333 19.626667v533.333333c0 8.96 5.333333 16.426667 13.013333 19.626667C250.88 859.946667 410.88 874.666667 512 874.666667s261.12-14.72 306.986667-65.706667c7.68-3.2 13.013333-10.666667 13.013333-19.626667V256c0-8.96-5.333333-16.426667-13.013333-19.626667zM789.333333 607.573333c-6.186667 18.773333-106.453333 53.76-277.333333 53.76-171.306667 0-271.573333-34.986667-277.333333-53.333333v-118.826667C300.16 522.88 426.88 533.333333 512 533.333333s211.84-10.453333 277.333333-44.16v118.4z m0-170.666666c-6.186667 18.773333-106.453333 53.76-277.333333 53.76-171.306667 0-271.573333-34.986667-277.333333-53.333334v-118.826666C300.16 352.213333 426.88 362.666667 512 362.666667s211.84-10.453333 277.333333-44.16v118.4zM512 213.333333c169.813333 0 269.866667 34.56 277.333333 53.333334-7.253333 18.773333-107.306667 53.333333-277.333333 53.333333-170.88 0-271.146667-34.986667-277.333333-52.693333v-0.213334c6.186667-18.773333 106.453333-53.76 277.333333-53.76z m0 618.666667c-171.306667 0-271.573333-34.986667-277.333333-53.333333v-118.826667C300.16 693.546667 426.88 704 512 704s211.84-10.453333 277.333333-44.16v118.4c-6.186667 18.773333-106.453333 53.76-277.333333 53.76z" p-id="10651"></path></svg>