<?xml version="1.0" standalone="no"?><!DOCTYPE svg PUBLIC "-//W3C//DTD SVG 1.1//EN" "http://www.w3.org/Graphics/SVG/1.1/DTD/svg11.dtd"><svg t="1574485774371" class="icon" viewBox="0 0 1099 1024" version="1.1" xmlns="http://www.w3.org/2000/svg" p-id="12657" xmlns:xlink="http://www.w3.org/1999/xlink" width="137.375" height="128"><defs><style type="text/css"></style></defs><path d="M451.06 686.1 533.16 686.1c9.8 0 16.9-5.7 16.9-15.3 0-8 0-26.3 0-36.5 0-8.8-6.3-13.8-17.6-13.8l-82 0c-10.7 0-16.1 7.6-16.1 15.8 0 6.8 0 28.1 0 33.8C434.26 677.8 442.66 686.1 451.06 686.1zM612.36 686.1l116.6 0c10.5 0 17.3-5.8 17.3-14.2 0-8.2 0-28.2 0-36.5 0-8.7-6-14.9-17.6-14.9L611.76 620.5c-10.4 0-17 6-17 14.8 0 5.6 0 24.7 0 32.1C594.76 677.6 600.86 686.1 612.36 686.1zM364.56 145.7 179.86 485.4l0 285c0 27.5 16.4 42.3 45.6 42.3l626.3 0c25.4 0 40.8-15.4 40.8-40.5L892.56 481.8 707.26 145.7 364.56 145.7zM671.66 201.6 827.16 479.8 250.06 479.8 402.86 201.6 671.66 201.6zM832.56 756.3 238.26 756.3 238.26 542.5l594.3 0L832.56 756.3z" p-id="12658"></path></svg>