<?xml version="1.0" standalone="no"?><!DOCTYPE svg PUBLIC "-//W3C//DTD SVG 1.1//EN" "http://www.w3.org/Graphics/SVG/1.1/DTD/svg11.dtd"><svg class="icon" width="200px" height="200.00px" viewBox="0 0 1024 1024" version="1.1" xmlns="http://www.w3.org/2000/svg"><path d="M923.52 65.408H100.544c-37.888 0-68.544 30.72-68.544 68.608v584.64c0 37.888 30.656 68.48 68.544 68.48h342.848v102.848H272a34.24 34.24 0 0 0-34.24 34.24v34.24h548.48v-34.24a34.176 34.176 0 0 0-34.24-34.24h-171.456V787.2h342.784c37.888 0 68.608-30.656 68.608-68.48V134.08a68.48 68.48 0 0 0-68.416-68.672zM512 752.96a34.24 34.24 0 1 1 0-68.48 34.24 34.24 0 0 1 0 68.48z m384-102.272H128V158.656h768v492.032z" /></svg>