<?xml version="1.0" standalone="no"?><!DOCTYPE svg PUBLIC "-//W3C//DTD SVG 1.1//EN" "http://www.w3.org/Graphics/SVG/1.1/DTD/svg11.dtd"><svg t="1568558304880" class="icon" viewBox="0 0 1024 1024" version="1.1" xmlns="http://www.w3.org/2000/svg" p-id="1099" xmlns:xlink="http://www.w3.org/1999/xlink" width="128" height="128"><defs><style type="text/css"></style></defs><path d="M511.3 573.8c-59.5 0-115.4-23.2-157.4-65.2-42.1-42.1-65.2-98-65.2-157.4s23.2-115.4 65.2-157.4 98-65.2 157.4-65.2c59.5 0 115.4 23.2 157.4 65.2 42.1 42.1 65.2 98 65.2 157.4s-23.2 115.4-65.2 157.4-97.9 65.2-157.4 65.2z m0-381.3c-87.5 0-158.6 71.2-158.6 158.6s71.2 158.6 158.6 158.6c87.5 0 158.6-71.2 158.6-158.6s-71.1-158.6-158.6-158.6zM263.5 904.5l-62.7-12.8c14.5-71 53.5-135.6 109.7-182 28-23.1 59.4-41.1 93.3-53.5 35.1-12.9 72-19.4 109.7-19.4 37.4 0 74 6.4 108.9 19.1 33.7 12.2 64.9 29.9 92.8 52.7 55.9 45.6 95.1 109.3 110.3 179.4L763 901.6c-12.2-56-43.5-106.9-88.2-143.4-22.3-18.2-47.2-32.3-74.1-42.1-27.8-10.1-57.1-15.2-87-15.2-59.1 0-116.8 20.7-162.3 58.3-45.1 37-76.3 88.6-87.9 145.3z" p-id="1100"></path></svg>