<?xml version="1.0" standalone="no"?><!DOCTYPE svg PUBLIC "-//W3C//DTD SVG 1.1//EN" "http://www.w3.org/Graphics/SVG/1.1/DTD/svg11.dtd"><svg class="icon" width="200px" height="200.00px" viewBox="0 0 1024 1024" version="1.1" xmlns="http://www.w3.org/2000/svg"><path d="M509.270842 62.597687c-248.668523 0-450.254727 199.753463-450.254727 446.161503s201.586205 446.161503 450.254727 446.161503 450.254727-199.753463 450.254727-446.161503S757.939365 62.597687 509.270842 62.597687zM509.270842 211.317847c55.664787 0 107.779725 15.033391 152.467507 41.199331l-411.0621 407.326009c-26.40437-44.281529-41.574884-95.922676-41.574884-151.083997C209.100342 344.489892 343.487052 211.317847 509.270842 211.317847zM509.270842 806.200532c-55.666834 0-107.781772-15.032368-152.469554-41.197284l411.0621-407.326009c26.406416 44.281529 41.576931 95.922676 41.576931 151.08195C809.440319 673.03565 675.046447 806.200532 509.270842 806.200532z" /></svg>