<?xml version="1.0" standalone="no"?><!DOCTYPE svg PUBLIC "-//W3C//DTD SVG 1.1//EN" "http://www.w3.org/Graphics/SVG/1.1/DTD/svg11.dtd"><svg class="icon" width="200px" height="200.00px" viewBox="0 0 1024 1024" version="1.1" xmlns="http://www.w3.org/2000/svg"><path d="M918.24 804.8l-213.472-213.472c-12.448-12.416-32.576-12.512-45.12-0.16l-79.136 78.144c-6.048 6.016-9.472 14.144-9.504 22.688s3.328 16.672 9.376 22.72l213.952 213.952c6.24 6.24 14.432 9.376 22.624 9.376s16.384-3.136 22.624-9.376l78.656-78.624c6.016-6.016 9.376-14.112 9.376-22.624S924.256 810.816 918.24 804.8zM573.92 88.704c-0.48-0.224-0.928-0.416-1.408-0.608-114.336-47.136-244.544-21.184-332 66.272l-166.496 165.888c-6.016 6.016-9.408 14.144-9.408 22.656s3.36 16.64 9.376 22.656l98.304 98.304c12.512 12.512 32.736 12.512 45.248 0l56.032-56 68.224 68.192c6.016 6.016 14.144 9.376 22.624 9.376 0.032 0 0.096 0 0.16 0 8.544-0.032 16.704-3.488 22.656-9.568l77.92-79.36c12.32-12.544 12.224-32.64-0.192-45.056l-67.648-67.68c-2.048-5.344-1.92-11.616 1.056-18.4l4.64-8.832c8.704-15.008 33.472-44.704 40.672-53.216 31.296-31.264 72.608-50.112 116.64-53.28 12.928 0.896 24.896-7.008 30.208-19.392C597.376 114.56 589.92 95.84 573.92 88.704zM942.304 207.2c-4.448-9.44-13.184-16.096-23.424-17.92-10.464-1.824-20.768 1.536-28.128 8.896l-89.376 89.344-33.024-33.056 88.8-88.8c7.424-7.424 10.752-18.048 8.832-28.384-1.888-10.336-8.736-19.104-18.304-23.392-24.832-11.2-52.384-17.12-79.648-17.12-51.232 0-99.328 19.904-135.456 56.064-50.688 50.656-68.32 126.24-47.04 193.952l-238.688 238.688c-67.936-21.376-143.872-3.072-193.952 47.04-56.032 56.032-71.68 142.464-38.944 215.136 4.32 9.6 13.088 16.448 23.424 18.304 10.272 2.016 20.96-1.408 28.384-8.832l87.52-87.52 33.056 33.056-88.064 88.064c-7.36 7.36-10.688 17.888-8.896 28.128 1.792 10.272 8.48 19.04 17.92 23.456 25.664 12.064 54.24 18.432 82.624 18.432 51.168 0 99.2-19.872 135.296-55.968 51.52-51.488 68.768-128.064 46.048-196.544l237.12-237.12c19.68 6.528 40.512 9.952 61.216 9.952 51.168 0 99.2-19.904 135.296-56C961.792 368.096 976.864 280.544 942.304 207.2z" /></svg>