<?xml version="1.0" standalone="no"?><!DOCTYPE svg PUBLIC "-//W3C//DTD SVG 1.1//EN" "http://www.w3.org/Graphics/SVG/1.1/DTD/svg11.dtd"><svg class="icon" width="200px" height="200.00px" viewBox="0 0 1024 1024" version="1.1" xmlns="http://www.w3.org/2000/svg"><path d="M867.2 160 160 160C105.6 160 64 204.8 64 256l0 512c0 54.4 41.6 96 96 96l707.2 0c54.4 0 96-41.6 96-96L963.2 256C963.2 204.8 921.6 160 867.2 160zM195.2 323.2c0-19.2 12.8-32 32-32L416 291.2c19.2 0 32 12.8 32 32L448 512c0 19.2-12.8 32-32 32L227.2 544c-19.2 0-32-12.8-32-32L195.2 323.2zM800 736 224 736c-19.2 0-32-12.8-32-32s12.8-32 32-32l576 0c19.2 0 32 12.8 32 32S819.2 736 800 736zM512 448c0-19.2 12.8-32 32-32l128 0c19.2 0 32 12.8 32 32s-12.8 32-32 32l-128 0C524.8 480 512 467.2 512 448zM800 352l-256 0c-19.2 0-32-12.8-32-32s12.8-32 32-32l256 0c19.2 0 32 12.8 32 32S819.2 352 800 352z" /></svg>