<?xml version="1.0" standalone="no"?><!DOCTYPE svg PUBLIC "-//W3C//DTD SVG 1.1//EN" "http://www.w3.org/Graphics/SVG/1.1/DTD/svg11.dtd"><svg class="icon" width="200px" height="200.00px" viewBox="0 0 1024 1024" version="1.1" xmlns="http://www.w3.org/2000/svg"><path d="M387.2 782.24M286.112 741.12M512 63.68c-247.04 0-448 172.256-448 384 0 116.48 63.008 226.048 170.592 298.944l87.328 71.52c-3.904 19.328-17.408 60.096-32.64 97.536-4.928 12.096-1.984 25.984 7.36 35.072 6.112 5.888 14.112 8.992 22.272 8.992 4.384 0 8.8-0.896 12.992-2.752 36.416-16.224 147.488-68.96 187.616-125.376C763.136 828.16 960 657.248 960 447.68 960 235.968 759.04 63.68 512 63.68zM731.136 406.56l-128.8 188.864c-5.984 8.736-15.872 13.984-26.432 13.984-0.128 0-0.288 0-0.448 0-10.72-0.16-20.672-5.664-26.464-14.688l-91.584-142.208L385.824 592c-5.664 11.072-16.864 17.408-28.512 17.408-4.896 0-9.92-1.12-14.592-3.52-15.712-8.064-21.92-27.328-13.856-43.072l96.896-188.896c5.216-10.176 15.456-16.8 26.912-17.344 11.52-0.416 22.272 5.024 28.48 14.656l95.456 148.288 101.632-148.992c9.984-14.592 29.856-18.336 44.48-8.416C737.312 372.032 741.088 391.968 731.136 406.56z" /></svg>