<?xml version="1.0" standalone="no"?><!DOCTYPE svg PUBLIC "-//W3C//DTD SVG 1.1//EN" "http://www.w3.org/Graphics/SVG/1.1/DTD/svg11.dtd"><svg t="1575007359397" class="icon" viewBox="0 0 1024 1024" version="1.1" xmlns="http://www.w3.org/2000/svg" p-id="1421" width="48" height="48" xmlns:xlink="http://www.w3.org/1999/xlink"><defs><style type="text/css"></style></defs><path d="M709.12 153.6H896c15.36 0 25.6-10.24 25.6-25.6s-10.24-25.6-25.6-25.6H640c-2.56 0-25.6 0-25.6 25.6v256c0 15.36 10.24 25.6 25.6 25.6s25.6-10.24 25.6-25.6V189.44c120.32 56.32 204.8 181.76 204.8 322.56 0 197.12-161.28 358.4-358.4 358.4S153.6 709.12 153.6 512c0-181.76 133.12-330.24 307.2-353.28v-51.2C258.56 130.56 102.4 302.08 102.4 512c0 225.28 184.32 409.6 409.6 409.6s409.6-184.32 409.6-409.6c0-153.6-84.48-289.28-212.48-358.4z" p-id="1422"></path></svg>