<?xml version="1.0" standalone="no"?><!DOCTYPE svg PUBLIC "-//W3C//DTD SVG 1.1//EN" "http://www.w3.org/Graphics/SVG/1.1/DTD/svg11.dtd"><svg t="1565255274692" class="icon" viewBox="0 0 1025 1024" version="1.1" xmlns="http://www.w3.org/2000/svg" p-id="6710" xmlns:xlink="http://www.w3.org/1999/xlink" width="100.09765625" height="100"><defs><style type="text/css"></style></defs><path d="M512.300999 22.875955c-282.939447 0-511.699001 200.465608-511.699001 447.285126 0 12.641975 0.601999 25.283951 1.805996 37.925926 12.039976 125.817754 83.677837 236.585538 190.231628 311.233392L192.639624 987.278072c0 25.885949 28.293945 41.537919 49.965902 28.293945l173.97766-105.349794c31.303939 4.815991 63.209877 7.825985 95.717813 7.825985 267.889477 0 487.619048-179.997648 509.893004-409.3592 1.203998-12.641975 2.407995-25.283951 2.407995-37.925926C1024 223.341564 794.638448 22.875955 512.300999 22.875955zM255.8495 450.897119c0-17.457966 14.447972-31.905938 31.905938-31.905938l46.955908 0c17.457966 0 31.905938 14.447972 31.905938 31.905938 0 17.457966-14.447972 31.905938-31.905938 31.905938l-46.955908 0C270.297472 483.405056 255.8495 468.957084 255.8495 450.897119zM671.830688 630.292769 352.169312 630.292769c-17.457966 0-31.905938-14.447972-31.905938-31.905938 0-17.457966 14.447972-31.905938 31.905938-31.905938l320.263374 0c17.457966 0 31.905938 14.447972 31.905938 31.905938C703.736626 615.844797 689.890653 630.292769 671.830688 630.292769zM736.244562 483.405056 455.71311 483.405056c-17.457966 0-31.905938-14.447972-31.905938-31.905938 0-17.457966 14.447972-31.905938 31.905938-31.905938l279.929453 0c17.457966 0 31.905938 14.447972 31.905938 31.905938C768.1505 468.957084 753.702528 483.405056 736.244562 483.405056z" p-id="6711"></path></svg>