<?xml version="1.0" standalone="no"?><!DOCTYPE svg PUBLIC "-//W3C//DTD SVG 1.1//EN" "http://www.w3.org/Graphics/SVG/1.1/DTD/svg11.dtd"><svg t="1571667064667" class="icon" viewBox="0 0 1096 1024" version="1.1" xmlns="http://www.w3.org/2000/svg" p-id="1657" xmlns:xlink="http://www.w3.org/1999/xlink" width="137" height="128"><defs><style type="text/css"></style></defs><path d="M415.24020635 190.41851533A128.7742456 128.7742456 0 1 0 544.01445107 62a128.7742456 128.7742456 0 0 0-128.77424472 128.41851533zM254.80599453 544.01409599h578.41691396a32.01569648 32.01569648 0 0 1 32.01569649 32.01569561v32.01569649a32.01569648 32.01569648 0 0 0 32.01569648 32.37142675 32.01569648 32.01569648 0 0 0 32.01569649-32.37142676v-96.40281884a32.01569648 32.01569648 0 0 0-32.01569649-32.01569648h-289.20845742a32.01569648 32.01569648 0 0 1-32.01569648-32.01569649v-32.37142588a32.01569648 32.01569648 0 0 0-32.01569649-32.01569648 32.37142676 32.37142676 0 0 0-32.37142587 32.01569648v32.37142588a32.01569648 32.01569648 0 0 1-32.01569648 32.01569649H190.41887128a32.01569648 32.01569648 0 0 0-32.01569648 32.01569648v96.40281885a32.01569648 32.01569648 0 0 0 32.01569649 32.37142675 32.37142676 32.37142676 0 0 0 32.37142676-32.37142675v-32.01569648a32.01569648 32.01569648 0 0 1 32.01569648-32.01569562z" fill="#515151" p-id="1658"></path><path d="M62.00035596 833.22255253a128.7742456 128.7742456 0 1 0 128.41851533-128.77424472A128.41851533 128.41851533 0 0 0 62.00035596 833.22255253zM768.83578614 833.22255253a128.41851533 128.41851533 0 1 0 128.41851532-128.77424472 128.41851533 128.41851533 0 0 0-128.41851533 128.77424473zM415.24020635 833.22255253a128.7742456 128.7742456 0 1 0 128.77424472-128.77424472 128.7742456 128.7742456 0 0 0-128.77424472 128.77424473z" fill="#515151" p-id="1659"></path></svg>