<?xml version="1.0" standalone="no"?><!DOCTYPE svg PUBLIC "-//W3C//DTD SVG 1.1//EN" "http://www.w3.org/Graphics/SVG/1.1/DTD/svg11.dtd"><svg t="1568562316521" class="icon" viewBox="0 0 1024 1024" version="1.1" xmlns="http://www.w3.org/2000/svg" p-id="977" width="128" height="128" xmlns:xlink="http://www.w3.org/1999/xlink"><defs><style type="text/css"></style></defs><path d="M912.49777778 220.72888889H657.63555555V112.41244445c0-20.02488889-16.384-37.31911111-37.3191111-37.31911112H403.68355555c-20.02488889 0-37.31911111 16.384-37.3191111 37.31911112V220.72888889H111.50222222c-20.02488889 0-36.40888889 16.384-36.40888889 36.40888889v182.04444444l436.90666667 72.81777778 436.90666667-72.81777778V257.13777778c0-20.02488889-16.384-36.40888889-36.40888889-36.40888889z m-473.31555556-72.81777778h145.63555556v72.81777778H439.18222222v-72.81777778z m145.63555556 273.06666667c0 10.01244445-8.192 18.20444445-18.20444445 18.20444444H457.38666667c-10.01244445 0-18.20444445-8.192-18.20444445-18.20444444v-36.40888889c0-10.01244445 8.192-18.20444445 18.20444445-18.20444444h109.22666666c10.01244445 0 18.20444445 8.192 18.20444445 18.20444444v36.40888889z m-72.81777778 127.43111111l436.90666667-72.81777778v436.90666667c0 20.02488889-16.384 36.40888889-36.40888889 36.40888889H111.50222222c-20.02488889 0-36.40888889-16.384-36.40888889-36.40888889V475.59111111l436.90666667 72.81777778z" p-id="978"></path></svg>