<?xml version="1.0" standalone="no"?><!DOCTYPE svg PUBLIC "-//W3C//DTD SVG 1.1//EN" "http://www.w3.org/Graphics/SVG/1.1/DTD/svg11.dtd"><svg t="1574485872999" class="icon" viewBox="0 0 1024 1024" version="1.1" xmlns="http://www.w3.org/2000/svg" p-id="15069" xmlns:xlink="http://www.w3.org/1999/xlink" width="128" height="128"><defs><style type="text/css"></style></defs><path d="M511.21900692 143.11093678c-203.57886201 0-369.40972527 165.57053229-369.40972526 369.40972526 0 203.57886201 165.57053229 369.40972527 369.40972526 369.40972529s369.40972527-165.57053229 369.40972525-369.40972529c0-203.83919301-165.83086329-369.40972527-369.40972525-369.40972526z m0 673.47636311c-29.6777369 0-68.72739076-59.09514281-89.29354177-159.58291865l178.3267525 0.26033101c-20.30581999 100.22744485-59.35547385 159.32258765-89.03321073 159.32258764z m-98.9257897-224.66567507c-2.60331025-24.99177844-3.9049654-51.54554304-3.9049654-79.66129378 0-29.4174059 1.56198615-57.27282564 4.42562744-83.30592819l197.33091738 0.26033102c2.86364128 25.77277152 4.16529643 53.62819129 4.16529639 83.04559717 0 28.37608178-1.30165514 54.92984638-3.90496537 79.92162485l-198.11191044-0.26033107z m98.9257897-383.72793164c29.4174059 0 67.94639769 58.05381872 88.51254869 156.19861534l-177.02509737-0.26033103c20.56615103-98.14479664 59.35547385-155.93828432 88.51254868-155.93828431z m164.00854609 221.28137171l128.86385769 0.26033105c7.54959974 26.29343356 11.45456514 54.14885328 11.45456512 82.7852661 0 27.85541973-3.64463438 54.66951539-10.67357207 80.18195587l-129.12418867-0.26033102c2.34297923-26.03310254 3.64463438-52.8471982 3.64463435-79.92162485 0-28.37608178-1.56198615-56.23150149-4.16529642-83.04559715z m101.78943098-64.82242535l-110.90101686-0.26033102c-7.02893771-37.48766768-16.66118561-72.11169407-28.89674384-102.31009306-4.68595846-11.97522715-9.89257897-22.90913024-15.3595305-33.06204025 66.1240805 25.77277152 121.05392688 74.19434229 155.1572912 135.63246433z m-376.43866293-135.63246433c-5.46695155 10.15290999-10.41324101 21.34714409-15.35953052 33.06204025-12.23555821 30.19839897-21.86780614 64.56209435-28.89674381 102.04976203l-110.64068588-0.26033102c34.36369535-60.91745999 89.03321075-109.07869972 154.89696021-134.85147126z m-181.97138686 199.93422764l128.60352661 0.26033102c-2.60331025 27.07442665-3.9049654 54.92984638-3.90496539 83.30592817 0 27.07442665 1.30165514 53.62819129 3.64463441 79.66129385l-127.56220258-0.26033107v6.24794463c-8.07026179-27.07442665-12.23555821-55.97117051-12.23555817-85.64890741-0.26033104-29.15707487 3.9049654-57.0124946 11.45456512-83.56625919z m24.99177844 227.78964735l112.20267205 0.26033104c7.02893771 38.78932281 16.92151667 74.45467331 29.41740585 105.69439637 4.68595846 11.97522715 9.89257897 22.90913024 15.35953052 33.06204026-67.16540461-26.29343356-122.87624404-76.01665946-156.97960842-139.01676767zM621.85969279 795.76081787c5.46695155-10.15290999 10.41324101-21.34714409 15.3595305-33.06204026 12.49588925-30.97939203 22.3884682-66.64474255 29.41740588-105.17373435l111.94234101 0.26033105c-34.10336433 62.47944614-89.55387278 111.68200994-156.71927739 137.97544356z" fill="" p-id="15070"></path></svg>